<svg xmlns="http://www.w3.org/2000/svg" version="1.1" xmlns:xlink="http://www.w3.org/1999/xlink" width="512" height="512" x="0" y="0" viewBox="0 0 64 64" style="enable-background:new 0 0 512 512" xml:space="preserve" class=""><g><path d="M49.39 17.96a1.498 1.498 0 0 0-1.09-.47H15.7a1.511 1.511 0 0 0-1.5 1.58l1.99 34.26a7.63 7.63 0 0 0 7.6 7.17h16.42a7.63 7.63 0 0 0 7.6-7.17l1.99-34.26a1.48 1.48 0 0 0-.41-1.11zM27.2 51.61a1.5 1.5 0 0 1-1.53-1.47l-.39-19.92a1.511 1.511 0 0 1 1.47-1.53 1.531 1.531 0 0 1 1.53 1.47l.39 19.92a1.498 1.498 0 0 1-1.47 1.53zm11.13-1.47a1.5 1.5 0 0 1-3-.06l.39-19.92a1.5 1.5 0 0 1 3 .06zM52.01 11H41V8.75a5.256 5.256 0 0 0-5.25-5.25h-7.5A5.256 5.256 0 0 0 23 8.75V11H11.99a1.5 1.5 0 1 0 0 3h40.02a1.5 1.5 0 0 0 0-3zM38 11H26V8.75a2.253 2.253 0 0 1 2.25-2.25h7.5A2.253 2.253 0 0 1 38 8.75z" fill="#ffffff" opacity="1" data-original="#000000" class=""></path></g></svg>
