<svg xmlns="http://www.w3.org/2000/svg" version="1.1" xmlns:xlink="http://www.w3.org/1999/xlink" width="512" height="512" x="0" y="0" viewBox="0 0 32 32" style="enable-background:new 0 0 512 512" xml:space="preserve" class=""><g><path d="M30 9.829V27a3.003 3.003 0 0 1-3 3h-2V20a3 3 0 0 0-3-3H10a3 3 0 0 0-3 3v10H5a3.003 3.003 0 0 1-3-3V5a3.003 3.003 0 0 1 3-3h5v5a3 3 0 0 0 3 3h6a3 3 0 0 0 3-3V2h.171a2.98 2.98 0 0 1 2.122.879l4.828 4.828A2.98 2.98 0 0 1 30 9.829zM12 2v5a1 1 0 0 0 1 1h6a1 1 0 0 0 1-1V2zm11 18v10H9V20a1 1 0 0 1 1-1h12a1 1 0 0 1 1 1zm-2 5H11a1 1 0 0 0 0 2h10a1 1 0 0 0 0-2zm0-3H11a1 1 0 0 0 0 2h10a1 1 0 0 0 0-2z" fill="#ffffff" opacity="1" data-original="#000000" class=""></path></g></svg>